<svg width="466" height="248" viewBox="0 0 466 248" fill="none" xmlns="http://www.w3.org/2000/svg">
<g clip-path="url(#clip0_8_3)">
<rect width="466" height="248" fill="#C7E66E"/>
<circle cx="233" cy="124" r="241" fill="#854EE8"/>
<path d="M356.766 14.8812C334.376 -10.5145 304.716 -28.4078 271.809 -36.3711C238.902 -44.3343 204.342 -41.9819 172.818 -29.6331C141.294 -17.2843 114.332 4.46309 95.5891 32.6586C76.8467 60.8541 67.2315 94.1327 68.048 127.979L68.9532 127.958C68.1411 94.2966 77.7036 61.2006 96.3432 33.1598C114.983 5.11906 141.797 -16.509 173.148 -28.79C204.5 -41.0711 238.87 -43.4105 271.596 -35.491C304.322 -27.5715 333.82 -9.77636 356.087 15.48L356.766 14.8812Z" fill="#C7E66E"/>
<path d="M68.2166 132.452C68.3161 134.392 68.4499 136.33 68.6179 138.266L69.5199 138.187C69.3529 136.263 69.2199 134.335 69.1209 132.406L68.2166 132.452Z" fill="#C7E66E"/>
<path d="M69.0696 142.757C69.4731 146.284 69.9904 149.797 70.6207 153.291L71.5117 153.13C70.885 149.655 70.3705 146.162 69.9692 142.654L69.0696 142.757Z" fill="#C7E66E"/>
<path d="M89.5403 205.513C93.896 213.179 98.8592 220.483 104.382 227.356L105.088 226.789C99.5953 219.954 94.6594 212.689 90.3275 205.065L89.5403 205.513Z" fill="#C7E66E"/>
<path d="M112.774 237.008C115.667 240.085 118.677 243.051 121.798 245.898L122.408 245.229C119.305 242.398 116.311 239.448 113.434 236.387L112.774 237.008Z" fill="#C7E66E"/>
<path d="M397.833 116.57C396.425 85.3385 386.173 55.1496 368.271 29.5191L367.529 30.0376C385.333 55.5274 395.528 85.5506 396.928 116.611L397.833 116.57Z" fill="#C7E66E"/>
<path d="M384.215 190.023C391.87 172.489 396.418 153.758 397.655 134.666L396.751 134.607C395.521 153.595 390.999 172.223 383.385 189.66L384.215 190.023Z" fill="#C7E66E"/>
<path d="M346.262 243.987C352.894 237.726 358.995 230.927 364.504 223.658L363.782 223.111C358.304 230.34 352.236 237.102 345.64 243.328L346.262 243.987Z" fill="#C7E66E"/>
<path d="M362 124C362 151.146 353.437 177.599 337.529 199.596C321.621 221.592 299.18 238.009 273.4 246.511C247.62 255.012 219.815 255.164 193.944 246.945C168.072 238.727 145.452 222.556 129.305 200.735L130.069 200.17C146.098 221.83 168.551 237.881 194.231 246.039C219.912 254.197 247.512 254.046 273.102 245.607C298.692 237.169 320.968 220.872 336.758 199.038C352.549 177.204 361.049 150.946 361.049 124H362Z" fill="#C7E66E"/>
<path d="M314.831 24.2768C324.652 32.3358 333.229 41.8015 340.284 52.3673L339.493 52.8953C332.49 42.4074 323.976 33.0115 314.228 25.0119L314.831 24.2768Z" fill="#C7E66E"/>
<path d="M121.283 188.5C112.428 173.163 106.826 156.167 104.825 138.57C102.825 120.973 104.47 103.153 109.656 86.2199L110.566 86.4984C105.417 103.307 103.785 120.996 105.77 138.463C107.756 155.929 113.317 172.8 122.106 188.025L121.283 188.5Z" fill="#C7E66E"/>
<path d="M120.8 60.3429C125.367 52.2942 130.786 44.7603 136.964 37.8711L137.672 38.506C131.539 45.3444 126.16 52.8228 121.627 60.8121L120.8 60.3429Z" fill="#C7E66E"/>
<path d="M143.81 30.8007C146.854 27.8877 150.039 25.1256 153.353 22.5243L153.94 23.2724C150.65 25.8545 147.489 28.5962 144.467 31.4877L143.81 30.8007Z" fill="#C7E66E"/>
<path d="M162.752 15.8046C168.619 11.9952 174.787 8.66926 181.194 5.85984L181.575 6.7307C175.216 9.51941 169.094 12.8208 163.27 16.6022L162.752 15.8046Z" fill="#C7E66E"/>
<path d="M327 124C327 140.485 322.665 156.681 314.429 170.962C306.193 185.242 294.346 197.106 280.077 205.362C265.808 213.618 249.618 217.977 233.133 218C216.648 218.023 200.446 213.711 186.154 205.495C171.861 197.279 159.981 185.449 151.705 171.192C143.428 156.935 139.047 140.751 139 124.266C138.954 107.781 143.243 91.573 151.439 77.2691C159.634 62.9652 171.448 51.0681 185.693 42.7716L186.079 43.4334C171.949 51.6623 160.232 63.4625 152.103 77.6498C143.975 91.8372 139.72 107.913 139.766 124.264C139.813 140.615 144.158 156.666 152.367 170.807C160.576 184.949 172.36 196.682 186.535 204.831C200.711 212.98 216.781 217.257 233.132 217.234C249.483 217.211 265.54 212.888 279.693 204.699C293.846 196.51 305.596 184.743 313.765 170.579C321.934 156.415 326.234 140.351 326.234 124H327Z" fill="#C7E66E"/>
<path d="M233 30C247.909 30 262.605 33.5465 275.873 40.3467C289.142 47.147 300.602 57.0058 309.309 69.1092L308.635 69.5937C300.006 57.5971 288.646 47.8253 275.495 41.0851C262.344 34.3449 247.778 30.8297 233 30.8297L233 30Z" fill="#C7E66E"/>
<path d="M312.921 74.5169C315.688 78.9846 318.074 83.6764 320.056 88.5429L319.186 88.8975C317.223 84.0796 314.861 79.4348 312.122 75.0118L312.921 74.5169Z" fill="#C7E66E"/>
<path d="M321.765 93.0693C322.555 95.3343 323.257 97.6287 323.871 99.9475L323.015 100.174C322.407 97.8769 321.712 95.6041 320.93 93.3604L321.765 93.0693Z" fill="#C7E66E"/>
<circle cx="165.5" cy="29.5" r="2.5" fill="#C7E66E"/>
<circle cx="99.5" cy="64.5" r="2.5" fill="#C7E66E"/>
<circle cx="63.5" cy="14.5" r="2.5" fill="#C7E66E"/>
<circle cx="297.5" cy="16.5" r="2.5" fill="#C7E66E"/>
<circle cx="369.5" cy="82.5" r="2.5" fill="#C7E66E"/>
<circle cx="420.5" cy="11.5" r="2.5" fill="#C7E66E"/>
<circle cx="85.5" cy="183.5" r="2.5" fill="#C7E66E"/>
<circle cx="44.5" cy="215.5" r="2.5" fill="#C7E66E"/>
<circle cx="369.5" cy="204.5" r="2.5" fill="#C7E66E"/>
<circle cx="420.5" cy="227.5" r="2.5" fill="#C7E66E"/>
<path d="M-0.499962 194.5C2.6667 199.833 8.40004 210.8 6.00004 212C4.00004 213 1.50004 213 -0.499962 213M-0.999962 215C0.166705 214.5 3.00004 214 5.00004 216C7.50004 218.5 9.50004 224.5 11 225C12.5 226 14 225.5 15.5 230C17 234.5 14 250.5 13 253C12.2 255 11.3334 253.167 11 252C11.6667 249.5 13 244 13 242C13 239.5 15 231 13 230C11 228.5 10.5 226 9.00004 227C7.50004 228 4.00004 229 4.50004 232C5.00004 235 3.50004 239 2.00004 241C0.500038 243 -0.999962 244.5 -0.999962 246.5C-0.999962 248.5 -1.99996 248.5 0.500038 247C3.00004 245.5 3.00004 244 4.50004 242C6.00004 240 6.00004 239 6.00004 237C6.00004 235 6.00002 233 6.50002 232.5C7.00002 232 8.50002 229 10.5 230.5C12.5 232 12.5 233 12.5 234.5C12.5 235.7 11.5 238 11 239C10.6667 239.833 10 241.8 10 243C10 244.5 9.50006 245.5 9.00004 247C8.50002 248.5 7.50004 250 6.00004 250.5C4.80004 250.9 5.83336 248 6.50002 246.5C6.66668 246 7.2 244.6 8.00002 243C8.80003 241.4 9.66669 237.667 10 236C10 234.333 9.80005 231.2 9.00004 232C8.20002 232.8 8.00002 234.667 8.00002 235.5L7.50002 238L6.50002 243L4.50004 245L3.50002 247L1.00002 249.5C1.66893e-05 249.833 -2.19998 250.4 -2.99998 250C-3.99998 249.5 -3.49998 244 -2.99998 243C-2.59998 242.2 -0.833329 240 -1.90735e-06 239C-1.90735e-06 239 0.100054 238.8 0.500038 238C1.00002 237 0.500035 236.5 1.00002 236C1.5 235.5 0.999959 235 1.5 234.5C2.00004 233 2.00004 233 2.00004 231.5C2.00004 230 2.5 230.5 2.5 229.5C2.9 228.3 4.33336 227.333 5.00004 227L6.50002 226L7.50002 225.5C7.66668 225.667 8.00002 225.8 8.00002 225C8.00002 224.2 7.00002 223.333 6.50002 223C6.33336 223 6.00004 223.1 6.00004 223.5C6.00004 224 3.99996 224 3 224C2.20003 224 1.33336 224.333 1.00002 224.5H0.500038L-1.5 226L-0.499962 226.5L0.500038 226H1.5L5.00004 225.5L2.5 226.5L0.500038 228.5L-0.499962 229.5L-1.5 230.5C-1.49999 231.167 -1.79997 232 -2.99998 230C-4.5 227.5 -6 227.5 -5 226C-4 224.5 -4.49996 224.5 -2.99998 224C-1.5 223.5 -1.49996 223 -0.499962 223C0.300038 223 1.16668 222.667 1.5 222.5C1.66666 222.667 2.1 222.9 2.5 222.5C3 222 4.00004 221.5 4.50004 221.5C5.00004 221.5 6.00004 222 6.00004 220.5C6.00004 219.3 5.33337 218.667 5.00004 218.5C4.83335 218.167 4.39999 217.5 4 217.5C3.60001 217.5 3.16667 218.167 3 218.5C1.83333 220 -0.8 222.5 -2 220.5C-3.2 218.5 -1.49997 217.667 -0.499962 217.5C-0.0999939 217.5 0.999998 217.167 1.5 217V216H-1.5H-2L-2.99998 213C-2.83332 212.667 -2.4 212 -2 212C-0.499962 211.5 1.50008 211 2.00004 211C2.5 211 6.00008 210.5 4.50004 209C3.30001 207.8 2.66666 205.833 2.5 205L-0.999962 198C-1.16664 198.333 -1.5 199.2 -1.5 200C-1.5 201 -0.999962 203.5 -0.999962 204C-0.999962 204.5 0.500038 205 0.500038 205.5C0.500038 205.9 0.833357 206.333 1.00002 206.5L0.500038 208L-0.499962 208.5L-2.5 209" stroke="#EAFB97" stroke-width="0.2"/>
<path d="M15.5 248.5C16 245.5 17.1 239.3 17.5 238.5C18 237.5 21.5 240.5 21.5 242C21.5 243.5 22 244.5 23 246.5C24 248.5 27 251.5 25.5 251.5C24 251.5 19.5 247.5 19.5 246C19.5 244.5 19.5 244 19 243C18.5 242 17 246 17 246.5C17 246.9 17 248 17 248.5H17.5" stroke="#EAFB97" stroke-width="0.2"/>
<path d="M2.5 0L-6 -8.5" stroke="#EAFB97" stroke-width="0.2"/>
<path d="M25 -1.5C24.5 -0.833334 23.2 0.899999 22 2.5C20.5 4.5 20 5.5 19.5 7.5C19 9.5 18 12 16.5 13C15 14 13.5 16 13.5 17C13.5 18 15.5 19.5 13.5 21.5C11.5 23.5 9.49999 25.5 7.99999 25.5C6.49999 25.5 1.99999 22.5 2.49999 19C2.99999 15.5 3.5 14 1.5 13C-0.1 12.2 -2.16667 11.3333 -3 11C-2.5 10.6667 -1.2 10.1 0 10.5C1.5 11 1.99998 11.5 2.49999 12C3 12.5 4 12.5 4 14C4 15.5 4 17 4 18C4 19 5.00001 21.5 6.5 21.5C7.99999 21.5 8.5 23 9.5 21.5C10.5 20 10.5 22 10.5 18C10.5 14 11.5 13 12.5 13C13.5 13 15.5 13 16.5 11C17.5 9 17.5 8.5 18 6C18.5 3.5 20 1.5 21 0.499999C22 -0.500001 23 -3.5 21 -2.5C19 -1.5 17.5 -0.500001 17 2C16.5 4.5 17.5 4 16 6.5C14.5 9 14.5 10.5 12 10C9.5 9.5 7.5 10.5 9 7C10.5 3.5 12 2.5 12 0.499999C12 -1.1 11.6667 -2.83333 11.5 -3.5C11.6667 -3.66667 12.1 -3.9 12.5 -3.5C13 -3 13.5 -9.53674e-07 13 0.999999C12.5 2 12.5 3.5 11.5 5C10.5 6.5 11.5 9 13 7.5C14.5 6 14.5 5.5 14.5 4.5C14.5 3.5 14.5 3.5 14.5 2C14.5 0.499999 15.5 -9.53674e-07 15.5 -1C15.5 -2 14.5 -5 13.5 -5.5C12.5 -6 11.5 -6.5 11 -6C10.5 -5.5 8 -5.5 8.5 -4C8.9 -2.8 9.33333 -1.5 9.5 -1C10.1667 -1 11.3 -0.700001 10.5 0.499999C9.5 2 10 2.5 9 3.5C8.19999 4.3 7 6.16667 6.5 7C6.16667 7.33333 5.8 8.3 7 9.5C8.5 11 8.5 11 9.5 11C10.5 11 9.5 12 9.5 13C9.5 14 9 15 9 16C9 16.8 9.33333 17.6667 9.5 18L7.99999 19C7.49999 19 6.4 18.9 6 18.5C5.5 18 5 18 5 17C5 15.4 5 14.3333 5 14V13V12L4 10.5C4.16667 10.3333 4.30001 10 3.5 10C2.69999 10 1.83333 9.66667 1.5 9.5H0.5H0L-1 9L0 7.5C-0.499997 7.5 -1.09999 7.5 0.5 7.5C2.09999 7.5 3.5 7.5 4 7.5C3.83333 7.5 3.6 7.3 4 6.5C4.4 5.7 3.16666 5.16667 2.49999 5L1.5 6H0C-0.333333 6.16667 -1.1 6.3 -1.5 5.5C-0.7 3.5 -0.5 3.66667 -0.5 4L1.5 3.5H2.49999C2.33333 3.33333 2.3 3.1 3.5 3.5C6.5 3.5 6.5 3.5 7 2.5C7.5 1.5 8.99998 -0.500001 7.99999 -1C4 0.999999 4.50001 2 3.5 2C1.9 2 0.5 2 0 2C0 1.66667 0 0.899998 0 0.499999" stroke="#EAFB97" stroke-width="0.2"/>
<path d="M-1.49999 14C-0.999988 13.3333 0.100012 12.5 0.500012 14.5C1.00001 17 1.50001 17 1.50001 20C1.50001 23 0.500012 23 2.50001 24.5C4.50001 26 5.50001 26.5 7.50001 26.5C9.50001 29.5 8.50001 30.5 8.00001 32.5C7.50001 34.5 7.50001 34.5 6.00001 37C4.50001 39.5 4.50001 40 4.00001 42.5C3.50001 45 2.50001 44.5 1.50001 47.5C0.500012 50.5 3.50001 52.5 0.500012 55C-2.49999 57.5 -4.99999 59.5 -3.99999 55C-2.99999 50.5 -1.50001 51 -0.5 51C0.500012 51 1.50002 53.5 0.500012 49C-0.5 44.5 -0.499988 44.5 0.500012 43.5C1.50001 42.5 2 44 3.5 40.5C5 37 4.5 37.5 5 35C5.5 32.5 8.00001 28.5 6.00001 28C4.00001 27.5 3.50001 28.5 2.50001 26.5C1.50001 24.5 1.50002 24.5 0.500012 23.5C-0.5 22.5 -3.49998 22 -1.49999 24.5C0.5 27 0.500012 27 1.50001 28C2.50001 29 4.49999 28.5 3.5 30.5C2.50001 32.5 3.50001 33 2.50001 36C1.50001 39 2.50001 39.5 0.500012 40.5C-1.49999 41.5 -2.99998 40.5 -1.49999 38.5C0 36.5 0.500012 37.5 0.500012 35C0.500012 32.5 0.500012 32.5 0.500012 31.5C0.500012 30.7 -1.5 29.8333 -2.5 29.5" stroke="#EAFB97" stroke-width="0.2"/>
<path d="M470.5 188C469.5 189 465.5 191 465 193C464.5 195 463.5 197 463 198.5C462.5 200 461 207 463 209C465 211 466.5 212 468.5 211C470.5 210 471.5 206 470.5 206.5C469.5 207 468 209 466.5 209C465 209 464 209 464 207C464 205 464 206.5 464.5 202.5C465 198.5 463.5 197.5 465 197C466.5 196.5 466.5 195 467.5 195.5C468.5 196 469 198.5 468 199.5C467 200.5 467 201.5 466.5 202C466 202.5 465.5 203.5 465.5 204C467 206.5 464.5 206.5 465.5 207C466.3 207.4 467.833 206.5 468.5 206L469 204.5" stroke="#EAFB97" stroke-width="0.2"/>
<path d="M468.5 215C466.333 213.5 461.8 210.4 461 210C460 209.5 459.5 209.5 458.5 211.5C457.5 213.5 457 214 457 216C457 218 456.5 221.5 455.5 222.5C454.5 223.5 449 227.5 452.5 230.5C456 233.5 458.5 233.5 462 234C465.5 234.5 467 235 467 234C467 233 467.5 232.5 465.5 232.5C463.5 232.5 464 232.5 462.5 232.5C461 232.5 460.5 233 459.5 232.5C458.5 232 456.5 231 455.5 230C454.5 229 452.5 230 454 228C455.5 226 456 226.5 457 224C458 221.5 458 220.5 458 219C458 217.5 458 208.5 462.5 212C464.5 214 467.5 214 467.5 215.5C467.5 217 467.5 219 466 217.5C464 215.5 464.5 215 463.5 214.5C462.5 214 462.5 213.5 462 213.5C460.5 213.5 459.5 213 459.5 215C459.5 217 460 218.5 459.5 220.5C459 222.5 459 224.5 458 225.5C457 226.5 455.5 226 456.5 228C457.5 230 457 231 458.5 230.5C460 230 458 230 461 227C464 224 465 224 467 224C469 224 469.5 221 467.5 221.5C465.5 222 463.5 223 463 223.5C462.5 224 464 223.5 462 224.5C460 225.5 458 228.5 459.5 223C463 217.5 460.5 216.5 461 216C461.5 215.5 463 215 463.5 216C464 217 464.5 219 465 219C465.4 219 466.5 219 467 219C466.833 219.5 466.4 220.5 466 220.5C465.5 220.5 463.5 220 463 220C462.5 220 462 219.5 462 220.5C462 221.3 463 221.5 463.5 221.5L467 221L469.5 220.5C469.833 220.667 470.5 221.2 470.5 222C469.5 224.5 469.5 225 468.5 225.5C467.5 226 468 226 467 226C466 226 465.5 226 465 226C463 226.8 462.167 227.667 462 228V229V229.5V230C462.167 230.333 462.8 231 464 231C465.5 231 467.5 231 468 231C468.5 231 468.5 229.5 468 229.5C467.5 229.5 467 229.5 466 229.5C465 229.5 463.5 230 463.5 229C463.5 228.2 464.5 227.333 465 227C465 227 465.1 227 465.5 227C465.9 227 466.667 227 467 227" stroke="#EAFB97" stroke-width="0.2"/>
<path d="M439.5 250.5C440 249.333 441 246.9 441 246.5C441 246 441.5 246 443 244.5C444.5 243 446.5 242 447 240C447.5 238 446.5 239 447.5 236.5C448.5 234 448 233.5 450 233C452 232.5 453.5 231.5 457 234C460.5 236.5 461.5 237.5 464 237.5C466.5 237.5 467 237 467.5 237.5C468 238 468.5 239 467.5 239C466.5 239 466 240 465 239.5C464 239 463 239 461.5 238.5C460 238 459.5 239.5 457.5 237.5C455.5 235.5 455 232.5 452.5 234.5C450 236.5 449.5 237.5 449.5 238.5C449.5 239.5 452 239 449.5 241.5C447 244 447.5 243.5 444.5 245C441.5 246.5 441 246 441 248C441 250 442.5 250 443 248.5C443.5 247 442 246.5 444.5 246.5C447 246.5 447 248 448.5 245.5C450 243 450.5 244 451 241.5C451.5 239 450.5 238.5 451.5 237.5C452.5 236.5 454 232 455 237.5C455.8 241.9 460.333 241 462.5 240C462.833 240 463.8 240.1 465 240.5C466.5 241 467.5 241.5 467.5 242C466.5 243 465 243 464.5 243C464 243 464 243 463 243C462 243 462.5 243 460.5 243C458.5 243 456.5 243 456 243C455.5 243 455 242.5 454.5 241.5C454.1 240.7 453.667 239.833 453.5 239.5C453.167 239.167 452.5 238.6 452.5 239C452.5 239.5 452.5 239 452.5 240.5C452.5 242 453 241.5 452.5 243C452 244.5 452 245 451.5 245.5C451 246 450 245.5 450 246.5C450 247.5 450 248 450 248.5C450 249 450.5 249 451 249C451.5 249 453 249.5 453.5 248C455 246 454.5 245.5 456 245.5C457.5 245.5 458 245.5 458.5 245.5C458.9 245.5 460 245.833 460.5 246C460.167 246.333 459.4 247 459 247C458.5 247 458 247 457 247C456 247 455 247.5 455 248C455 248.5 454 249.5 456 249C458 248.5 456.5 250 459 248.5C461 245.7 462.167 245 462.5 245C462.667 244.833 463.1 244.5 463.5 244.5C464 244.5 464.5 244 465 244.5C465.4 244.9 465.833 245.333 466 245.5C466 245.667 465.8 246 465 246C463 246.8 462.5 247.667 462.5 248C462.833 247.667 463.7 247 464.5 247C465.7 247 466.333 247.333 466.5 247.5" stroke="#EAFB97" stroke-width="0.2"/>
<path d="M441.5 -2C442.333 1.5 444.8 8.5 448 8.5C452 8.5 451 6.5 451 4C451 1.5 450.5 1.19209e-07 449 -1.5C447.5 -3 442 -2.5 442.5 -1.5C443 -0.5 440.5 -1 443 1.5C445.5 4 446 4 446.5 5.5C447 7 446.5 9 448 7.5C449.5 6 450 6 449.5 4C449 2 449 2 448 0.5C447 -1 446.5 -2.5 445 -1.5C443.5 -0.5 442 -1 444 0.5C446 2 446 2 446.5 3C447 4 449 4.5 448 2.5C447 0.5 446 0.5 445.5 0" stroke="#EAFB97" stroke-width="0.2"/>
<path d="M451 -2C451.5 -1.5 453.5 8.5 451.5 10.5C449.5 12.5 447.5 9.5 447 10C446.5 10.5 447.5 12.5 448 13C448.5 13.5 453.5 17.5 457 10C460.5 2.5 456.5 3.5 459.5 0.999999C462.5 -1.5 464.5 -3 464 -3.5C463.5 -4 460.5 -4.5 459.5 -4C458.5 -3.5 457.5 -2 456.5 -2C455.5 -2 455 -1.5 454.5 -1.5C454 -1.5 456 -1 456.5 -0.5C456.9 -0.1 457.333 0.666666 457.5 0.999999C457.5 1.16667 457.5 1.8 457.5 3C457.5 4.5 456 11.5 453.5 12.5C451 13.5 451 14 449.5 13C448 12 452.5 14 453.5 11C454.5 8 453.5 9.5 453.5 7.5C453.5 5.5 453.5 5 454 4C454.5 3 454 0 453.5 -0.5C453 -1 454.5 0.999999 455 0.999999C455.5 0.999999 455.5 2 455.5 3C455.5 3.8 456.167 3 456.5 2.5L454.5 -0.5" stroke="#EAFB97" stroke-width="0.2"/>
<path d="M463.5 -0.5C462.833 0 461.3 1.2 460.5 2C459.5 3 459.5 4.5 459.5 6.5C459.5 8.5 459 10 458 11.5C457 13 453 16 452 16C451 16 449 16.5 450.5 18.5C452 20.5 449.5 20.5 453 21.5C456.5 22.5 455 24.5 459.5 25C464 25.5 468 27 469 25C470 23 470 23 466.5 23.5C463 24 463 25 460.5 23.5C458 22 459 21.5 456 20.5C453 19.5 452 19 452 18C452 17 450.5 18 453 17C455.5 16 456 16.5 457 15C458 13.5 459 12.5 459.5 11.5C460 10.5 460 12.5 460.5 9.5C461 6.5 461 7 461.5 5.5C462 4 461.5 3 464 1.5C466 0.3 467.833 0.666667 468.5 1L466.5 2.5C465.667 2.83333 464 3.6 464 4C464 4.5 463.5 5 463 6C462.5 7 462.5 7.5 462.5 8C462.5 8.5 463 9.5 462.5 10.5C462 11.5 460.5 13 460.5 13.5C460.5 13.9 458.833 15.3333 458 16C456.167 16.6667 453.4 18 457 18C461.5 18 458.5 20 460.5 21.5C462.5 23 463 23.5 464.5 22C466 20.5 467.5 20.5 467.5 19.5C467.5 18.5 468.5 18 466.5 18.5C464.5 19 464 19.5 463.5 19.5C463 19.5 462.5 20 462 20C461.5 20 460.5 18 460.5 17.5C460.5 17 459 17 461 16C463 15 464 14.5 464 13C464 11.5 464.5 10 464.5 9.5C464.5 9.1 465.167 8 465.5 7.5C465.667 7.33333 466.1 7.1 466.5 7.5C467 8 467.5 8.5 467.5 9C467.5 9.5 466.5 11 466.5 11.5C466.5 12 466.5 12 465.5 13C464.5 14 464.5 14.5 464.5 15C464.5 15.4 464.5 16 464 16H465.5H467" stroke="#EAFB97" stroke-width="0.2"/>
<path d="M470 29C467 28.5 460.5 27.3 458.5 26.5C456 25.5 454.5 23 454 24C453.5 25 454.5 26 456 29C457.5 32 458.5 34.5 459 36.5C459.5 38.5 458.5 40.5 462 40.5C465.5 40.5 467 42.5 469 40.5C471 38.5 470 37.5 468 37.5C466 37.5 463 38 462 38C461 38 460.5 38 460.5 36C460.5 34 460 31.5 459 31C458.2 30.6 457.333 28.8333 457 28C457.5 27.3333 458.9 26.4 460.5 28C462.5 30 462.5 30 464.5 30C466.5 30 469 30.5 469 31C469 31.5 467 33 466 32.5C465 32 465 32 463.5 31.5C462.3 31.1 461 32.5 461 31C460.833 31.6667 460.6 33.1 461 33.5C461.5 34 462 34 462 34.5C462 35 462.5 35.5 463 35.5C463.5 35.5 464 35.5 465 35.5C465.8 35.5 466.667 35.5 467 35.5V34.5C467.167 34.1667 467.2 33.6 466 34C464.5 34.5 463.5 34.5 463.5 34C463.5 33.6 467.167 33.1667 469 33" stroke="#EAFB97" stroke-width="0.2"/>
<path d="M468.5 61C465.667 55.1667 460.5 43.5 462.5 43.5C465 43.5 464.5 43 464 42.5C463.5 42 466 41.5 467 42.5C468 43.5 469 44.5 468 44.5C467 44.5 467 44.5 466.5 44.5C465.3 44.5 464.333 44.8333 464 45C464 45.1667 464 45.6 464 46C464 46.4 464.667 47.1667 465 47.5C465 47.3333 465 47.2 465 48C465 48.8 465 49.6667 465 50C465.167 50.3333 465.5 51.1 465.5 51.5C467 53.5 468.5 55.5 468 53.5C467.5 51.5 464.5 46 465.5 46C466.5 46 467.5 46 468 46C468.4 46 467.167 46.3333 466.5 46.5C466.5 46.6667 466.5 47.1 466.5 47.5C466.5 47.9 466.833 48.6667 467 49" stroke="#EAFB97" stroke-width="0.2"/>
<path d="M6 213C6.8 212.6 7 211.833 7 211.5C7.5 210 8.5 213.5 8.5 214C8.5 214.5 10.5 218.5 10.5 219C10.5 219.5 11.5 221.5 12 222.5C13.6 225.3 12.6667 225 12 224.5C11.6667 223.833 10.9 222.5 10.5 222.5C10 222.5 8.5 220.5 8.5 219.5C8.5 218.5 7 217.5 6.5 216.5C6 215.5 5 215 4.5 214.5C4 214 5 213.5 6 213Z" stroke="#EAFB97" stroke-width="0.2"/>
</g>
<defs>
<clipPath id="clip0_8_3">
<rect width="466" height="248" fill="white"/>
</clipPath>
</defs>
</svg>
