<svg width="1440" height="1024" viewBox="0 0 1440 1024" fill="none" xmlns="http://www.w3.org/2000/svg">
<g clip-path="url(#clip0_24_3)">
<rect width="1440" height="1024" fill="#38618c"/>
<path d="M112.5 -27C134.333 -4.16669 159.9 54 87.5 104C-2.99997 166.5 -51 120 -60.5 198.5C-68.1 261.3 -28 173.667 -6.99998 122C5.33335 126.167 38.4 128.4 72 104C114 73.5 125 63 126.5 43.5C128 24 130.5 -2.00002 110.5 -3.50002C90.5 -5.00002 133 29 104.5 56C76 83 77.5 109 33.5 106.5C-10.5 104 -19.5 90 -33.5 97C-47.5 104 -10.5 84 25.5 87C61.5 90 114.5 63 98.5 -3.50002C85.7 -56.7 82.5 -32 82.5 -13C104.167 14.3333 114.9 70.8 -15.5 78C-145.9 85.2 -64.1666 74 -6.99998 67.5C9.00002 68.6667 45.4 67.5 63 53.5C85 36 100.5 32 79.5 -3.50002C62.7 -31.9 61.5 -18 63 -7.5C80.8333 12.6667 91.8 53.6 -6.99998 56C-105.8 58.4 -48.1667 50.3333 -6.99998 46C29.6667 48 94.2 40.9 59 -3.50002C23.8 -47.9 37.3333 -22 48.5 -3.50002C58 13 61.1 44.2 -2.5 37C-66.1 29.8 -29 29 -2.5 29.5C21.5 33.8333 62.3 34.1 33.5 0.5C4.7 -33.1 12.8333 -16.1667 20.5 -3.50002C23 10.3333 19.9 34.6 -12.5 21C-44.9 7.4 -21 9.33333 -5 12C3.16667 9.99999 18.2 4.09998 13 -3.50002" stroke="#5188C2"/>
<path d="M131.5 -20C149.333 -12 177.7 15.7 148.5 62.5C112 121 112.5 158 119 191C125.5 224 248.5 353.5 440.5 283.5C632.5 213.5 724 -3.00002 855 -20C914.551 -27.728 773.501 -28.5031 590.814 -26.692M590.814 -26.692C710.229 -21.5058 797.943 -14.961 778 -7.5C727 11.5803 610 152.5 562.5 191C515 229.5 348 283.5 242 256.5C136 229.5 99.5 191 148.5 112C187.7 48.8 180.5 -2.33334 172 -20C289.152 -22.4467 452.002 -25.3159 590.814 -26.692ZM590.814 -26.692C465.922 -32.1161 306.354 -36.0541 199 -38C196.333 11.3333 183.8 121.5 155 167.5C119 225 253.5 254.5 333.5 237.5C413.5 220.5 520.5 253.5 764.5 -38C959.7 -271.2 497.5 -143.5 242 -50.5C213.333 18.3333 159.2 160.5 172 178.5C188 201 192.5 231.5 298.5 218C404.5 204.5 613.5 172 718.5 -50.5C802.5 -228.5 461.5 -124.667 280.5 -50.5C236.667 17.6667 160.1 158.7 204.5 177.5C260 201 617 202.5 674.5 -63C720.5 -275.4 591.333 -138.833 521 -44L313 -50.5C281 -12.8333 217 70.4 217 102C217 141.5 230 205 367.5 167.5C505 130 614.5 65.1243 641.5 -50.5C663.1 -142.999 467.833 -97.3748 367.5 -63C327.658 -31.8334 246.779 43.4 242 95C236.026 159.5 255.5 161.5 298.5 161.5C341.5 161.5 492.628 157.616 590.814 -26.692ZM349 -7.5C310.646 15.8757 239.152 72.5017 260 112C286.061 161.373 421 139.5 512 44.5C603 -50.5 581.628 -52.9034 590.814 -94.5C598.163 -127.777 445 -50.3655 367.5 -7.5C340.833 15 286.1 65.2 280.5 86C273.5 112 268 136 333.5 119C399 102 507 16 527.5 -20C543.9 -48.8 453 -32 405.5 -20C370.167 3.33332 302.2 55.2 313 76C326.5 102 351.5 85.5 474.5 -13.5C572.9 -92.7 507.167 -137.5 462 -150" stroke="#5188C2"/>
<path d="M-21.5 161C17.8333 142.167 97.6 122.5 102 194.5C107.5 284.5 192.5 331.5 272.5 335.5C352.5 339.5 426 393 429.5 452.5C433 512 445 713.5 -21.5 749.5C-394.7 778.3 -171.333 384.167 -13 183.5C52.3333 153.667 143.8 131.6 -13 282C-169.8 432.4 -78.3334 295 -13 207.5C19.1666 193 64.2 182 -13 254C-90.2 326 -45.1667 312.333 -13 296.5C15.3333 276.667 84.1 248.9 132.5 296.5C193 356 316 343 342 370C368 397 444.5 416 410 501.5C375.5 587 341.5 646 249.5 662C157.5 678 32 768.5 -47.5 727C-71.9482 714.238 -78.1175 668.509 -74.2899 610M-74.2899 610C-68.1601 516.303 -36.3926 389.834 -13 313.5C11.3333 296.667 70.4 274.9 112 322.5C164 382 226 356 272.5 370C319 384 393.5 388.5 392.5 452.5C391.5 516.5 357 598.5 318 620.5C279 642.5 11 742 -13 715C-32.2 693.4 -17.3333 457.333 -7.50002 342C7.66665 329.833 50.8 315.2 102 354C166 402.5 223 402 259.5 398.5C296 395 316 369 342 426.5C368 484 370 604.5 241 637C112 669.5 -33.5 718 -47.5 690C-54.6829 675.634 -53.0639 588.111 -49.2639 501.5M-74.2899 610C120.42 583 284.5 526.5 195.5 480.5C124.3 443.7 -33.8334 459.5 -104 472C-205.167 538.167 -328.6 660.5 -13 620.5C381.5 570.5 267 478.5 241 464.5C215 450.5 168 473 102 434C49.2 402.8 -29 426 -61.5 441.5C-141.833 532.667 -243.5 701.8 -7.50002 649C287.5 583 312.5 549 318 520C323.5 491 299.5 469 267 441.5C234.5 414 220.5 476.5 125 413.5C48.6 363.1 -7.50002 385.833 -26 403.5C-45.1667 489.667 -69.4 663.7 -13 670.5C57.5 679 259.5 612 312.5 561C365.5 510 312.5 452.5 284.5 426.5C256.5 400.5 163 419 102 375.5C53.2 340.7 -14.3333 357.333 -42 370C-44.3314 404.91 -47.1387 453.062 -49.2639 501.5M-49.2639 501.5C-20.0093 493.5 53.2 479.9 112 489.5C185.5 501.5 191 582 -104 584C-340 585.6 -189.333 548.333 -84.5 529.5C-35.1667 521.167 61.7 509.5 54.5 529.5C45.5 554.5 35.5 555.887 -13 569.5" stroke="#5188C2"/>
<path d="M998 -15C986 51.3333 1016.3 193.5 1233.5 231.5C1505 279 1531 225.5 1578 178C1625 130.5 1139 -383 1036 -15C933 353 1596.5 103 1604.5 95.5C1610.9 89.5 1514.5 148 1465.5 178L1279 203C1251.67 217.167 1246.6 242.7 1445 231.5C1643.4 220.3 1536 201.833 1457.5 194L1315 213C1295.33 221.333 1296.3 234.8 1457.5 222C1618.7 209.2 1521.33 158.333 1452.5 134.5C1284.83 180.833 972.3 215.8 1063.5 -15C1154.7 -245.8 1119.17 -104.167 1090 -4.5C1054 87 1078.7 239.2 1465.5 116C1852.3 -7.2 1613 57.3333 1445 105C1276.33 142.333 976.6 169.6 1127 -20C1277.4 -209.6 1205 -88.6667 1150 -4.5C1108.17 62.5 1111.1 172.8 1457.5 78C1803.9 -16.8 1417.83 -23.5 1181.5 -15C1145.67 56 1150.7 169.7 1457.5 56.5C1764.3 -56.7 1422.33 -46 1213 -26.5C1210.83 -13.3333 1204 18.9 1194 42.5C1181.5 72 1156 81.6816 1249 87C1342 92.3184 1442.5 67 1470.5 42.5C1492.9 22.9 1349.17 -11.6667 1274.5 -26.5C1257.67 -11.1667 1223.7 24.1 1222.5 42.5C1221 65.5 1325.5 92.5 1493.5 14.5C1627.9 -47.9 1430.5 -51.5 1315 -45.5C1284.83 7.5 1271.1 93.7 1457.5 14.5C1643.9 -64.7 1458.17 -73.5 1342 -68C1335.17 1 1342.9 95.7 1428.5 -77.5" stroke="#5188C2"/>
<path d="M820.5 -7C771.5 27.5 669.2 113.5 652 181.5C630.5 266.5 758 169.5 872 151C986 132.5 989 -25 996.5 -61.5C1002.5 -90.7 898.667 -37.3333 846 -7L709.5 125C679.333 154 633.5 205.9 691.5 181.5C764 151 834 125 872 125C910 125 967 55.5797 975 -7C981.4 -57.0638 909 -27.8599 872 -7C773.667 72 630.8 204.5 846 102.5C1061.2 0.5 924.667 -99 829.5 -136L899.5 -7L809.5 67.5C757.333 118 709.2 173.8 934 -7C1158.8 -187.8 1079.33 -201.667 1011.5 -186" stroke="#5188C2"/>
<path d="M-7 814C98.6667 807 326.2 774.9 391 702.5C472 612 473 454 513.5 554C554 654 562 721.5 499 759.5C436 797.5 368 819 316.5 885.5C265 952 202 1026 191.5 1062.5C181 1099 128.5 1104.5 134.5 1083.5C140.5 1062.5 236 886.5 316.5 845C397 803.5 477.5 762 499 725C520.5 688 525 489.5 476.5 576.5C428 663.5 383.5 771 316.5 779.5C249.5 788 -20.5 835.5 -41 845C-57.4 852.6 -25.1667 867.167 -7 873.5L191.5 820C249.5 795.5 348.8 765 282 839C198.5 931.5 130.5 1025 116.5 1074C105.3 1113.2 22.5 1058.67 -17.5 1026.5L-28 902C25 891.333 141.7 865 184.5 845C238 820 297.5 796.5 207 911.5C116.5 1026.5 71 1082.5 73 1105C74.6 1123 73.6667 1060.17 73 1026.5C173.667 941.167 298.6 801.8 -7 927C-312.6 1052.2 -141.333 998.833 -17.5 956.5C68.8334 909.833 222.5 838.6 146.5 927C70.5 1015.4 26.1667 1037.5 13.5 1037.5L-109 1055L-7 974.5C50.6667 936.167 156.1 873 116.5 927C76.9 981 -13 1053.83 -53 1083.5L-46 1023C36.3333 976.5 147.3 919.3 -67.5 1062.5M443.5 529C434.667 476.167 441 399.4 537 515C657 659.5 584 773.5 443.5 867.5C331.1 942.7 277.667 1023.83 265 1055L-28 1045.5L-17.5 759.5C83.1667 755.833 300.4 734.5 364 678.5C443.5 608.5 446.305 566 443.5 529ZM456.5 492C462.167 505.667 467.5 545.8 443.5 597C413.5 661 306 800 -28 788C-362 776 -63 1070 2.50005 1062.5C54.9 1056.5 181.333 1043.33 238 1037.5C281.667 971.667 383.9 834.8 443.5 814C518 788 621.5 709.5 520.5 541C464.5 454.828 456.5 469 456.5 492Z" stroke="#5188C2"/>
<path d="M397 737C437.8 692.6 468 634.5 478 611C511.5 548.436 502.5 662 492 701.5C481.568 740.744 448.434 759.259 397.991 787.447L397 788C346 816.5 346 792.5 397 737Z" stroke="#5188C2"/>
<path d="M1452 273C1372 278 1196.9 274.3 1136.5 219.5C1061 151 1053 281.5 1048.5 357C1044 432.5 1017 573 1056.5 711.5C1096 850 1244 1067.5 1405.5 868.5C1567 669.5 1625.5 605.5 1635.5 514C1643.5 440.8 1516.5 343.167 1452 303.5C1391.67 300.833 1259.5 291 1213.5 273C1156 250.5 1082 163.5 1073.5 303.5C1065 443.5 1035.5 655.5 1086 725.5C1136.5 795.5 1213.5 1074.5 1443.5 790C1627.5 562.4 1525.83 394.167 1452 338.5C1383.67 330.667 1240.3 310.8 1213.5 294C1180 273 1067.5 180 1086 347C1104.5 514 1031 634 1100 694.5C1169 755 1192.5 1077.5 1443.5 753.5C1644.3 494.3 1527.17 392.167 1443.5 373.5C1379.33 362.5 1244.9 336.8 1220.5 322C1190 303.5 1084 177.5 1106 368C1128 558.5 1095 550.5 1106 626C1117 701.5 1113 739.5 1195.5 790C1278 840.5 1409 885.5 1460.5 685" stroke="#5188C2"/>
<path d="M1454.5 404.5C1398.17 393.833 1275.1 367.7 1233.5 348.5C1181.5 324.5 1104.5 218 1125.5 396C1146.5 574 1116 634 1125.5 665C1135 696 1119.5 854.5 1454.5 697.5C1722.5 571.9 1566.17 471.167 1454.5 436.5C1391.17 423.833 1255.5 393.5 1219.5 373.5C1174.5 348.5 1123 406.5 1148 557.5C1173 708.5 1167.5 807 1471.5 641.5C1714.7 509.1 1561.5 472.333 1454.5 470.5C1368 426.5 1191.4 355.9 1177 425.5C1159 512.5 1132 632.5 1206.5 665C1281 697.5 1400 659 1471.5 593.5C1528.7 541.1 1484 510 1454.5 501C1390.33 458 1253.5 384.9 1219.5 436.5C1177 501 1141 618 1204 634.5C1267 651 1435.5 622 1537.5 557.5C1619.1 505.9 1516.17 517 1454.5 529C1403.5 490 1290.9 423.7 1248.5 470.5C1195.5 529 1159.5 601 1204 613.5C1248.5 626 1625.5 588.5 1663.5 512.5C1693.9 451.7 1536.83 517.167 1454.5 557.5C1422.5 526.667 1347.5 468.6 1303.5 483C1248.5 501 1193.5 543.5 1206.5 568.5C1219.5 593.5 1552.5 639.5 1663.5 436.5" stroke="#5188C2"/>
<path d="M1241.5 550.5C1219.1 538.5 1282.83 517.167 1317.5 508C1345.5 508 1368 522 1397.5 542C1427 562 1418.5 568.5 1348 578.5C1277.5 588.5 1269.5 565.5 1241.5 550.5Z" stroke="#5188C2"/>
<path d="M692 1036.5C679.5 1012 666.9 948 716.5 888C778.5 813 817 795 864 694.5C911 594 1066.5 277 1001 573C935.5 869 1219.5 1039 1273.5 1049.5C1300.6 1054.77 1156.19 1051.39 995 1046.21M995 1046.21C899.277 1043.13 797.64 1039.42 722.5 1036.5C697.167 1028.83 665.9 992.6 743.5 909C840.5 804.5 892 687.5 905 652.5C918 617.5 1023.5 345 976.5 616.5C929.5 888 1176.5 1021.18 1222 1036.5C1258.4 1048.76 935.5 1067.94 769.5 1076C734.833 1060.67 682.3 1015.8 749.5 959C833.5 888 890 748.5 905 700.5C920 652.5 972.5 452 957.5 694.5C942.5 937 1257.5 1070 1265.5 1076C1271.9 1080.8 968.5 1078 816 1076C783.667 1063 725.1 1029.2 749.5 998C780 959 871.5 864.5 883 827C894.5 789.5 926 683.5 933 668C940 652.5 946 623 946 735.5C946 848 947 819.5 1001 897C1055 974.5 1155 1071.5 1239.5 1099.5C1307.1 1121.9 1167 1066.83 1088.5 1036.5C1054.33 998.833 982 916.4 966 888C946 852.5 905 647.5 905 812C905 976.5 942.5 1062 976.5 1089C1003.7 1110.6 980.833 1063 966 1036.5C937 956.667 887.7 807 922.5 847C966 897 1058 1031.5 1078 1099.5C1094 1153.9 1029.33 1086.64 995 1046.21ZM1001 1116C978.833 1060.67 936.8 947.9 946 939.5C957.5 929 959 898.5 1018.5 1029.5C1066.1 1134.3 990 1158.83 946 1158M966 476C998.5 390.833 1056.1 273.9 1026.5 487.5C989.5 754.5 1106 876.5 1129.5 909C1153 941.5 1196 1041.5 1438.5 1067C1632.5 1087.4 1010.67 1063.83 675.5 1049.5C671.5 995.167 674.1 874.6 716.5 827C769.5 767.5 879.5 649 966 476Z" stroke="#5188C2"/>
<path d="M766 1029.5C787.667 989.833 836.4 910.9 858 912.5C885 914.5 906.5 931 914.5 1010.5C920.9 1074.1 835.833 1056 792.5 1039C808.833 987.5 847.6 897.1 872 947.5C902.5 1010.5 914.5 1026 914.5 1071.5C914.5 1107.9 844.167 1086.67 809 1071.5L851 962.5C853.667 948.833 865.6 941.9 892 1023.5" stroke="#5188C2"/>
<path d="M1455 838.5C1436.33 870.5 1388.9 937.1 1348.5 947.5C1298 960.5 1281.5 980 1256 968.5C1230.5 957 1137 930 1196.5 968.5C1256 1007 1260 1017.5 1330 1044.5C1386 1066.1 1371 1053.5 1356.5 1044.5C1308.17 1026.67 1220.4 991 1256 991C1300.5 991 1305 994.5 1356.5 974.5C1408 954.5 1415.5 959 1447 913.5C1472.2 877.1 1462.83 928.667 1455 959C1432 971.5 1378.5 997 1348.5 999C1311 1001.5 1320 1025.5 1367 1044.5C1404.6 1059.7 1403 1044.5 1397.5 1035C1381.33 1025.83 1368.6 1004.2 1447 991" stroke="#5188C2"/>
<path d="M582 889C580 878.2 602.167 847.833 613.5 834C645 815 634.5 850.5 623.5 868.5C612.5 886.5 584.5 902.5 582 889Z" stroke="#5188C2"/>
<path d="M293 1033.5C316.833 1005.5 376.1 943.7 422.5 920.5C480.5 891.5 546.5 830 570.5 784C594.5 738 590.5 713 627.5 748.5C664.5 784 663.5 793 686 788.5C708.5 784 756 741 715 813C674 885 639 982 656.5 1029C663.98 1049.09 599.092 1053.04 518.5 1050.2M507.5 1121.38C542.431 1134.52 568.283 1142.33 563 1134.5C549.5 1114.5 545 1105 563 1004.5C581 904 614.5 901.5 644 856C673.5 810.5 635.5 824 618 817.5C600.5 811 598 864.5 558.5 910.5C519 956.5 498.5 970 422.5 1004.5C361.7 1032.1 354.167 1050 358 1055.5C441.667 1071.5 607.7 1096.6 602.5 1069C596 1034.5 576.5 1007 635.5 900C694.5 793 667 842 635.5 800.5C604 759 609.5 813 587.5 849C565.5 885 501 936 399.5 986C318.3 1026 318.667 1043.33 329 1047C436.333 1066.17 646.3 1094.7 627.5 1055.5C604 1006.5 680.5 848 695 813C709.5 778 677 821.5 644 780C611 738.5 610.5 761 598 780C585.5 799 618 828.5 490 900C387.6 957.2 327 1012.83 309.5 1033.5C366.082 1040.1 448.256 1047.73 518.5 1050.2M507.5 1121.38C471.028 1107.66 424.658 1088.12 393.5 1074.5C402 1060.33 430.9 1023.9 478.5 991.5C538 951 538 929.5 550.5 932.5C563 935.5 565.5 921.297 550.5 986C538.5 1037.76 516.833 1097.82 507.5 1121.38ZM452.5 1029C474.833 1006.33 521.3 962.3 528.5 967.5C537.5 974 554 965.905 518.5 1050.2M473.5 1033.5C492.167 1005.5 527.3 957.9 518.5 991.5C507.5 1033.5 478.5 1129 465.5 1134.5" stroke="#5188C2"/>
<path d="M639.5 222.5C622.7 195.3 580.5 217.5 561.5 232C524 262.5 495 262 416.5 320C338 378 518 449.5 544.5 483.5C571 517.5 577 484.5 616 695.5C680 911 882 595 890.5 574C899 553 1015 355.5 1029.5 332.5C1044 309.5 1074 260.5 1029.5 169C985 77.5 846 178.5 810 201.5C774 224.5 660.5 256.5 639.5 222.5Z" stroke="#5188C2"/>
<path d="M450.5 317.5C465.7 296.3 556.833 249 600.5 228C628 221.5 642.5 245 666.5 255.5C690.5 266 723.5 244 906 176.5C1088.5 109 1006.5 330.5 967.5 381C928.5 431.5 933.5 534 775.5 691C617.5 848 646.5 654 642.5 589C638.5 524 593 483.5 492.5 430.5C392 377.5 431.5 344 450.5 317.5Z" stroke="#5188C2"/>
<path d="M472.5 337.5C480.1 287.5 549.667 268.333 583.5 265C705 265 619.5 287 855.5 211C1091.5 135 969.5 315.5 964 346C958.5 376.5 895.5 506.5 799.5 633C703.5 759.5 681.5 717.5 682.5 658.5C683.5 599.5 640.5 525.5 619.5 481C598.5 436.5 463 400 472.5 337.5Z" stroke="#5188C2"/>
<path d="M501 379C463 353.8 485.167 326.167 501 315.5C563 273 612 299.5 812.5 237.5C1013 175.5 963 296.5 959 327C955 357.5 908.5 428.5 863 531C730 784.5 681.5 589 660.5 496C639.5 403 548.5 410.5 501 379Z" stroke="#5188C2"/>
<path d="M565.5 393.5C464.3 333.5 523.333 315.167 565.5 313.5C601.5 313.5 612 335.5 830.5 245C1049 154.5 914.5 417 847 538C779.5 659 753 618.5 718.5 590C684 561.5 693 509.5 674 465.5C655 421.5 591 403 565.5 393.5Z" stroke="#5188C2"/>
<path d="M649 323C647.198 322.899 645.363 322.805 643.5 322.718M643.5 322.718C577.838 319.664 477.761 326.101 564.5 375.5C676 439 698.5 438 707 467.5C715.5 497 702 618.5 764 591C826 563.5 871.5 464 893.5 412.5C915.5 361 975 191.5 803 271.5C683.5 323 662.5 323.296 643.5 322.718Z" stroke="#5188C2"/>
<path d="M626.5 400C536.1 340 605.167 332 651 335.5C675.5 336.089 810 279.5 874.5 274.5C939 269.5 886 420 822 514C758 608 733 542.5 728 484.5C723 426.5 681.5 419 626.5 400Z" stroke="#5188C2"/>
<path d="M638.5 345C658.1 347.4 702.667 334.667 722.5 328C817.5 303.5 751 406.5 722.5 410.5C694 414.5 676 411.5 627.5 390.5C579 369.5 614 342 638.5 345Z" stroke="#5188C2"/>
<path d="M712 390.5C776 364.5 734.667 354.333 706 352.5C679 348.106 625.5 360 636 373.5C646.5 387 640.5 390.5 712 390.5Z" stroke="#5188C2"/>
<path d="M736.5 444.5C733.5 416.5 746 410.5 767 384C797.5 323.5 880 284 887 316.5C894 349 846 457 835.5 480C825 503 788 522.5 758.5 528.5C729 534.5 739.5 472.5 736.5 444.5Z" stroke="#5188C2"/>
<path d="M785 403C800.2 371.8 824.333 352 834.5 346C848 335.905 874.5 351.5 868 371.5C861.5 391.5 874.5 412.5 804 489.5C733.5 566.5 766 442 785 403Z" stroke="#5188C2"/>
<path d="M787 438C787.8 404.4 816.333 380.333 830.5 372.5C842.781 364 880 379 830.5 438C781 497 786 480 787 438Z" stroke="#5188C2"/>
</g>
<defs>
<clipPath id="clip0_24_3">
<rect width="1440" height="1024" fill="white"/>
</clipPath>
</defs>
</svg>
